<svg width="48" height="48" viewBox="0 0 48 48" fill="none" xmlns="http://www.w3.org/2000/svg">
  <path d="M23 10C18.5 11.2 15.2 15.3 15.2 20.1C15.2 24 17.5 27.3 20.8 28.8C20 28.9 19.2 29 18.4 29C13.2 29 9 24.8 9 19.6C9 15.8 11.2 12.5 14.4 11C15.3 10.6 16.3 10.3 17.3 10.1C19.1 9.7 21.1 9.7 23 10Z" fill="#F0F4FF" opacity="0.85"/>
  <path d="M40 36H18C14.134 36 11 32.866 11 29C11 25.3674 13.7651 22.3787 17.3071 22.0364C18.5896 17.4742 22.7839 14.125 27.75 14.125C33.3804 14.125 38.0302 18.4096 38.6829 23.8884C41.3306 24.5158 43.25 26.8945 43.25 29.75C43.25 33.2018 40.4518 36 37 36H40Z" fill="white" opacity="0.95"/>
</svg>